<?xml version="1.0" encoding="UTF-8"?><svg id="Layer_2" xmlns="http://www.w3.org/2000/svg" viewBox="0 0 24 24"><defs><style>.cls-1{fill:#1a2d57;}</style></defs><path class="cls-1" d="M19.82,9.67v1.83c0,4.24-3.13,7.73-7.11,8.06v3.16h3.11c.35,0,.64.29.64.64s-.29.64-.64.64h-7.66c-.35,0-.64-.29-.64-.64s.29-.64.64-.64h3.28v-3.16c-3.97-.34-7.1-3.82-7.1-8.06v-1.83c0-.36.28-.64.64-.64s.64.28.64.64v1.83c0,3.76,2.9,6.82,6.46,6.82s6.47-3.05,6.47-6.82v-1.83c0-.36.29-.64.64-.64s.64.28.64.64Z"/><path class="cls-1" d="M13.87,7.04c0,.23.19.42.42.42h2.3v1.48h-2.3c-.23,0-.42.19-.42.42s.19.42.42.42h2.3v1.96c0,2.49-2.03,4.52-4.52,4.52s-4.52-2.03-4.52-4.52v-1.96h2.31c.23,0,.42-.19.42-.42s-.19-.42-.42-.42h-2.31v-1.48h2.31c.23,0,.42-.19.42-.42s-.19-.42-.42-.42h-2.31v-1.47h2.31c.23,0,.42-.19.42-.42s-.19-.42-.42-.42h-2.3c.12-2.39,2.09-4.3,4.51-4.3s4.39,1.91,4.51,4.3h-2.29c-.23,0-.42.19-.42.42s.19.42.42.42h2.3v1.47h-2.3c-.23,0-.42.19-.42.42Z"/></svg>